REM DIRINDEX 1\2,1\3,1\4,1\5
REM DIRNAME cjc004,folder01,folder02,folder03,folder04
TITLE ""
FILE "1Q_t_0100-0109.mp3" MP3
  TRACK 01 AUDIO
    TITLE "3:cjc004_1200"
    INDEX 01 00:00:00
  TRACK 02 AUDIO
    TITLE "0:"
    INDEX 01 00:01:07
  TRACK 03 AUDIO
    TITLE "4:cjc004_1201"
    INDEX 01 00:01:30
  TRACK 04 AUDIO
    TITLE "0:"
    INDEX 01 00:02:61
  TRACK 05 AUDIO
    TITLE "5:cjc004_1202"
    INDEX 01 00:03:10
  TRACK 06 AUDIO
    TITLE "0:"
    INDEX 01 00:08:19
  TRACK 07 AUDIO
    TITLE "3:cjc004_1203"
    INDEX 01 00:09:04
  TRACK 08 AUDIO
    TITLE "0:"
    INDEX 01 00:10:25
  TRACK 09 AUDIO
    TITLE "4:cjc004_1204"
    INDEX 01 00:10:47
  TRACK 10 AUDIO
    TITLE "0:"
    INDEX 01 00:12:01
  TRACK 11 AUDIO
    TITLE "5:cjc004_1205"
    INDEX 01 00:12:40
  TRACK 12 AUDIO
    TITLE "0:"
    INDEX 01 00:16:46
  TRACK 13 AUDIO
    TITLE "3:cjc004_1206"
    INDEX 01 00:17:20
  TRACK 14 AUDIO
    TITLE "0:"
    INDEX 01 00:18:41
  TRACK 15 AUDIO
    TITLE "4:cjc004_1207"
    INDEX 01 00:18:62
  TRACK 16 AUDIO
    TITLE "0:"
    INDEX 01 00:20:14
  TRACK 17 AUDIO
    TITLE "5:cjc004_1208"
    INDEX 01 00:20:49
  TRACK 18 AUDIO
    TITLE "0:"
    INDEX 01 00:24:53
  TRACK 19 AUDIO
    TITLE "3:cjc004_1209"
    INDEX 01 00:25:37
  TRACK 20 AUDIO
    TITLE "0:"
    INDEX 01 00:26:50
  TRACK 21 AUDIO
    TITLE "4:cjc004_1210"
    INDEX 01 00:27:00
  TRACK 22 AUDIO
    TITLE "0:"
    INDEX 01 00:28:25
  TRACK 23 AUDIO
    TITLE "5:cjc004_1211"
    INDEX 01 00:28:68
  TRACK 24 AUDIO
    TITLE "0:"
    INDEX 01 00:33:50
  TRACK 25 AUDIO
    TITLE "3:cjc004_1212"
    INDEX 01 00:34:30
  TRACK 26 AUDIO
    TITLE "0:"
    INDEX 01 00:35:55
  TRACK 27 AUDIO
    TITLE "4:cjc004_1213"
    INDEX 01 00:36:09
  TRACK 28 AUDIO
    TITLE "0:"
    INDEX 01 00:37:40
  TRACK 29 AUDIO
    TITLE "5:cjc004_1214"
    INDEX 01 00:37:67
  TRACK 30 AUDIO
    TITLE "0:"
    INDEX 01 00:42:23
  TRACK 31 AUDIO
    TITLE "3:cjc004_1215"
    INDEX 01 00:43:07
  TRACK 32 AUDIO
    TITLE "0:"
    INDEX 01 00:44:16
  TRACK 33 AUDIO
    TITLE "4:cjc004_1216"
    INDEX 01 00:44:44
  TRACK 34 AUDIO
    TITLE "0:"
    INDEX 01 00:46:23
  TRACK 35 AUDIO
    TITLE "5:cjc004_1217"
    INDEX 01 00:46:56
  TRACK 36 AUDIO
    TITLE "0:"
    INDEX 01 00:51:46
  TRACK 37 AUDIO
    TITLE "3:cjc004_1218"
    INDEX 01 00:52:30
  TRACK 38 AUDIO
    TITLE "0:"
    INDEX 01 00:53:41
  TRACK 39 AUDIO
    TITLE "4:cjc004_1219"
    INDEX 01 00:54:07
  TRACK 40 AUDIO
    TITLE "0:"
    INDEX 01 00:55:28
  TRACK 41 AUDIO
    TITLE "5:cjc004_1220"
    INDEX 01 00:55:50
  TRACK 42 AUDIO
    TITLE "0:"
    INDEX 01 01:00:08
  TRACK 43 AUDIO
    TITLE "3:cjc004_1221"
    INDEX 01 01:01:05
  TRACK 44 AUDIO
    TITLE "0:"
    INDEX 01 01:02:08
  TRACK 45 AUDIO
    TITLE "4:cjc004_1222"
    INDEX 01 01:02:40
  TRACK 46 AUDIO
    TITLE "0:"
    INDEX 01 01:03:43
  TRACK 47 AUDIO
    TITLE "5:cjc004_1223"
    INDEX 01 01:04:05
  TRACK 48 AUDIO
    TITLE "0:"
    INDEX 01 01:08:25
  TRACK 49 AUDIO
    TITLE "3:cjc004_1224"
    INDEX 01 01:09:09
  TRACK 50 AUDIO
    TITLE "0:"
    INDEX 01 01:10:10
  TRACK 51 AUDIO
    TITLE "4:cjc004_1225"
    INDEX 01 01:10:39
  TRACK 52 AUDIO
    TITLE "0:"
    INDEX 01 01:11:49
  TRACK 53 AUDIO
    TITLE "5:cjc004_1226"
    INDEX 01 01:11:74
  TRACK 54 AUDIO
    TITLE "0:"
    INDEX 01 01:16:61
  TRACK 55 AUDIO
    TITLE "3:cjc004_1227"
    INDEX 01 01:17:43
  TRACK 56 AUDIO
    TITLE "0:"
    INDEX 01 01:18:53
  TRACK 57 AUDIO
    TITLE "4:cjc004_1228"
    INDEX 01 01:19:15
  TRACK 58 AUDIO
    TITLE "0:"
    INDEX 01 01:20:22
  TRACK 59 AUDIO
    TITLE "5:cjc004_1229"
    INDEX 01 01:20:51
  TRACK 60 AUDIO
    TITLE "0:"
    INDEX 01 01:25:25
